<svg xmlns="http://www.w3.org/2000/svg" width="1200" height="630" viewBox="0 0 1200 630" role="img" aria-labelledby="title desc">
  <title id="title">USDC Sender</title>
  <desc id="desc">Batch USDC payments for EVM wallets</desc>
  <defs>
    <linearGradient id="bg" x1="0" x2="1" y1="0" y2="1">
      <stop offset="0" stop-color="#eefaf7" />
      <stop offset="0.55" stop-color="#ffffff" />
      <stop offset="1" stop-color="#eaf2ff" />
    </linearGradient>
    <filter id="shadow" x="-20%" y="-20%" width="140%" height="140%">
      <feDropShadow dx="0" dy="22" stdDeviation="24" flood-color="#0f2d2a" flood-opacity="0.18" />
    </filter>
  </defs>
  <rect width="1200" height="630" fill="url(#bg)" />
  <rect x="64" y="64" width="1072" height="502" rx="36" fill="#ffffff" filter="url(#shadow)" />
  <circle cx="154" cy="156" r="48" fill="#2775ca" />
  <circle cx="154" cy="156" r="34" fill="none" stroke="#ffffff" stroke-width="10" />
  <path d="M136 156h36M154 130v52" stroke="#ffffff" stroke-width="10" stroke-linecap="round" />
  <text x="232" y="147" fill="#153b38" font-family="Inter, Arial, sans-serif" font-size="46" font-weight="800">USDC Sender</text>
  <text x="232" y="195" fill="#55706b" font-family="Inter, Arial, sans-serif" font-size="24" font-weight="700">Batch USDC Payments for EVM Wallets</text>
  <text x="96" y="324" fill="#0f2421" font-family="Inter, Arial, sans-serif" font-size="64" font-weight="850">Send USDC to many</text>
  <text x="96" y="394" fill="#0f2421" font-family="Inter, Arial, sans-serif" font-size="64" font-weight="850">addresses in one workflow</text>
  <text x="100" y="472" fill="#56736e" font-family="Inter, Arial, sans-serif" font-size="28" font-weight="600">Import recipients, approve USDC, and track token payouts.</text>
  <g transform="translate(806 250)">
    <rect x="0" y="0" width="248" height="174" rx="22" fill="#f4fbf8" stroke="#b8ddd5" stroke-width="3" />
    <rect x="28" y="36" width="132" height="18" rx="9" fill="#14746f" opacity="0.9" />
    <rect x="28" y="78" width="190" height="16" rx="8" fill="#9ecdc4" />
    <rect x="28" y="112" width="158" height="16" rx="8" fill="#9ecdc4" />
    <circle cx="206" cy="47" r="19" fill="#2775ca" />
  </g>
</svg>
